<svg preserveAspectRatio="none" width="100%" height="100%" overflow="visible" style="display: block;" viewBox="0 0 16 16" fill="none" xmlns="http://www.w3.org/2000/svg">
<g id="LinkedIn">
<path id="Vector" d="M3.61298 5.26139H0.269694V15.9229H3.61298V5.26139Z" fill="var(--fill-0, #666666)"/>
<path id="Vector_2" d="M12.6567 5.03032C12.5334 5.01491 12.4025 5.00721 12.2715 4.9995C10.3996 4.92247 9.34423 6.03176 8.97447 6.50937C8.87432 6.64033 8.8281 6.71736 8.8281 6.71736V5.29223H5.63119V15.9538H8.8281H8.97447C8.97447 14.8676 8.97447 13.7891 8.97447 12.7029C8.97447 12.1175 8.97447 11.532 8.97447 10.9465C8.97447 10.2224 8.92054 9.45207 9.2826 8.78958C9.59074 8.23494 10.1454 7.95761 10.7694 7.95761C12.6182 7.95761 12.6567 9.62925 12.6567 9.78332C12.6567 9.79102 12.6567 9.79873 12.6567 9.79873V16H16V9.04379C16 6.66344 14.7905 5.26142 12.6567 5.03032Z" fill="var(--fill-0, #666666)"/>
<path id="Vector_3" d="M1.94126 3.88252C3.01338 3.88252 3.88252 3.01339 3.88252 1.94126C3.88252 0.869131 3.01338 0 1.94126 0C0.869127 0 0 0.869131 0 1.94126C0 3.01339 0.869127 3.88252 1.94126 3.88252Z" fill="var(--fill-0, #666666)"/>
</g>
</svg>
