<svg preserveAspectRatio="none" width="100%" height="100%" overflow="visible" style="display: block;" viewBox="0 0 16 16" fill="none" xmlns="http://www.w3.org/2000/svg">
<g id="bxs-file-doc">
<path id="Vector" d="M8.124 9.70133C7.71267 9.70133 7.47267 10.0927 7.47267 10.6167C7.47267 11.144 7.72 11.5167 8.128 11.5167C8.53933 11.5167 8.77533 11.1247 8.77533 10.6007C8.77533 10.1167 8.54333 9.70133 8.124 9.70133Z" fill="var(--fill-0, #666666)"/>
<path id="Vector_2" d="M9.33333 1.33333H4C3.64638 1.33333 3.30724 1.47381 3.05719 1.72386C2.80714 1.97391 2.66667 2.31304 2.66667 2.66667V13.3333C2.66667 13.687 2.80714 14.0261 3.05719 14.2761C3.30724 14.5262 3.64638 14.6667 4 14.6667H12C12.3536 14.6667 12.6928 14.5262 12.9428 14.2761C13.1929 14.0261 13.3333 13.687 13.3333 13.3333V5.33333L9.33333 1.33333ZM6.10333 11.636C5.81933 11.872 5.388 11.9833 4.86067 11.9833C4.544 11.9833 4.32067 11.9633 4.16867 11.9433V9.296C4.44131 9.25674 4.71655 9.23824 4.992 9.24067C5.504 9.24067 5.836 9.33267 6.09533 9.52867C6.37533 9.73667 6.55133 10.0687 6.55133 10.5433C6.55133 11.06 6.36333 11.416 6.10333 11.636ZM8.09667 12C7.29667 12 6.82933 11.396 6.82933 10.628C6.82933 9.82067 7.34467 9.21733 8.14067 9.21733C8.968 9.21733 9.42 9.83667 9.42 10.5807C9.41933 11.464 8.88333 12 8.09667 12ZM11.2 11.492C11.3833 11.492 11.5873 11.4513 11.708 11.404L11.8 11.8793C11.688 11.9353 11.436 11.9953 11.1087 11.9953C10.1773 11.9953 9.69733 11.416 9.69733 10.648C9.69733 9.72867 10.3527 9.21733 11.1687 9.21733C11.4847 9.21733 11.724 9.28133 11.832 9.33733L11.708 9.82133C11.5457 9.75425 11.3716 9.72026 11.196 9.72133C10.712 9.72133 10.336 10.0133 10.336 10.6133C10.336 11.1527 10.656 11.492 11.2 11.492ZM9.33333 6H8.66667V2.66667L12 6H9.33333Z" fill="var(--fill-0, #666666)"/>
<path id="Vector_3" d="M5.056 9.70867C4.92067 9.70867 4.83267 9.72067 4.78067 9.73267V11.496C4.83267 11.508 4.91667 11.508 4.992 11.508C5.544 11.512 5.90333 11.2087 5.90333 10.5647C5.90733 10.0047 5.58 9.70867 5.056 9.70867Z" fill="var(--fill-0, #666666)"/>
</g>
</svg>
